Coordinates
version=1
nRows=26
nColumns=24
inDegrees=yes

Units are S.I. units (second, meters, Newtons, ...)
Angles are in degrees.

endheader
time	pelvis_tilt	pelvis_list	pelvis_rotation	pelvis_tx	pelvis_ty	pelvis_tz	hip_flexion_r	hip_adduction_r	hip_rotation_r	knee_angle_r	ankle_angle_r	subtalar_angle_r	mtp_angle_r	hip_flexion_l	hip_adduction_l	hip_rotation_l	knee_angle_l	ankle_angle_l	subtalar_angle_l	mtp_angle_l	lumbar_extension	lumbar_bending	lumbar_rotation
     22.82500000	     -0.91193715	     -6.34092632	   -267.83383210	      0.01134993	      0.15977532	     -1.81901421	     -6.40968593	     -1.23086664	     -5.81072561	    -27.43075260	      1.36900794	      3.35481381	     28.84142319	     31.27779852	      2.96118890	     -1.20300461	    -20.91478588	     -6.36022686	      0.25352505	     10.33993678	     -9.01390402	     -3.69099846	      6.26169545
     22.83000000	     -1.05533523	     -6.20538327	   -267.86663868	      0.01039860	      0.16057966	     -1.81957084	     -5.80336962	     -1.60212173	     -5.86675576	    -29.09784122	     -0.07050966	      3.39487670	     28.87114884	     30.83872370	      3.21375144	     -1.05330165	    -21.16190234	     -6.04381231	      0.01907678	     10.37355549	     -9.11151895	     -3.81289425	      6.22575776
     22.83500000	     -1.17821333	     -6.07382074	   -267.92614168	      0.00948835	      0.16140526	     -1.82004975	     -5.13843381	     -1.94333138	     -5.82965981	    -30.82715739	     -1.65163935	      3.21800749	     29.41656330	     30.37327818	      3.44324542	     -0.89902606	    -21.35155676	     -5.89485069	     -0.63144053	     10.32856478	     -9.21259855	     -3.90141724	      6.14978843
     22.84000000	     -1.36303507	     -5.97364891	   -268.01283568	      0.00858305	      0.16223246	     -1.82047853	     -4.37887932	     -2.37951153	     -5.80474854	    -32.64202812	     -3.37967724	      3.14751199	     31.66048508	     29.86919281	      3.72560275	     -0.77759004	    -21.40969132	     -5.61517062	     -0.92885172	      9.85387665	     -9.26916760	     -4.08198784	      6.18114443
     22.84500000	     -1.49902925	     -5.93931796	   -268.10058178	      0.00769372	      0.16298231	     -1.82078623	     -3.50405795	     -2.72915808	     -5.66493931	    -34.49249943	     -4.99058067	      2.98747547	     31.56003463	     29.45671843	      3.95165802	     -0.66228435	    -21.49622822	     -5.35014020	     -1.25698184	      9.85880312	     -9.27241756	     -4.18747465	      6.13711009
     22.85000000	     -1.68175643	     -5.88420589	   -268.24227921	      0.00692436	      0.16380038	     -1.82104721	     -2.60316986	     -3.12335782	     -5.47409411	    -36.37801175	     -6.63349577	      2.68265868	     31.39828918	     28.96767486	      4.18868142	     -0.64721132	    -21.47096920	     -5.05534882	     -1.56871861	      9.86490754	     -9.30263580	     -4.34774994	      6.13290182
     22.85500000	     -1.83639978	     -5.89426311	   -268.35112685	      0.00611964	      0.16449271	     -1.82117810	     -1.59542337	     -3.49961723	     -5.35520116	    -38.28015235	     -8.35235218	      2.22722669	     31.18184526	     28.56526406	      4.41259808	     -0.60463703	    -21.45541707	     -4.76470923	     -1.93209128	      9.77601202	     -9.27654177	     -4.48120774	      6.10503053
     22.86000000	     -2.02017141	     -5.91790215	   -268.52868569	      0.00548449	      0.16527080	     -1.82126865	     -0.54110815	     -3.86888058	     -5.09052501	    -40.14843009	    -10.06229734	      1.71142587	     30.75487403	     28.13430238	      4.62495048	     -0.61452752	    -21.35980589	     -4.44242707	     -2.12292910	      9.68623387	     -9.23833035	     -4.65683166	      6.12478257
     22.86500000	     -2.17482938	     -5.94775795	   -268.70473636	      0.00488114	      0.16602545	     -1.82127714	      0.55930115	     -4.19152396	     -4.85207893	    -41.98415789	    -12.00252750	      1.00909458	     30.04956692	     27.71794203	      4.78880165	     -0.69066473	    -21.26698109	     -4.17573020	     -2.43795941	      9.60742364	     -9.20123350	     -4.79310271	      6.10875655
     22.87000000	     -2.33855619	     -5.98375865	   -268.86972825	      0.00432424	      0.16680855	     -1.82119860	      1.64942521	     -4.54893413	     -4.66901433	    -43.75863593	    -13.43816474	      0.80515498	     26.68254093	     27.29722706	      4.96831073	     -0.71765798	    -21.14946868	     -3.89867540	     -2.64162029	      8.96189144	     -9.16701841	     -4.95240135	      6.09715750
     22.87500000	     -2.50319256	     -6.06802372	   -269.05102016	      0.00380359	      0.16756154	     -1.82105581	      2.81213774	     -4.86662032	     -4.40974989	    -45.50420315	    -15.27932706	      0.11400942	     25.81580092	     26.92222191	      5.13404408	     -0.77416859	    -21.00075784	     -3.51030322	     -2.69289485	      8.98021847	     -9.08556414	     -5.10956263	      6.09374705
     22.88000000	     -2.64754716	     -6.11147854	   -269.24765507	      0.00336315	      0.16837458	     -1.82087287	      3.90779198	     -5.16638347	     -4.19489605	    -47.18349145	    -16.60800776	     -0.24258332	     21.45368477	     26.51383551	      5.24768642	     -0.95309111	    -20.87379620	     -3.25104193	     -2.73008183	      8.79169574	     -9.05322326	     -5.23643017	      6.05056373
     22.88500000	     -2.76982229	     -6.16266810	   -269.43719238	      0.00296645	      0.16917705	     -1.82061073	      4.99869612	     -5.43719753	     -3.99911689	    -48.82071703	    -17.82734723	     -0.89722279	     18.38172175	     26.12112668	      5.34531287	     -1.08963281	    -20.75419964	     -2.91443395	     -2.74850428	      8.69771016	     -9.02215493	     -5.34345245	      6.00925517
     22.89000000	     -2.86946300	     -6.29335316	   -269.62399200	      0.00255227	      0.16992729	     -1.82028406	      6.18446747	     -5.67394715	     -3.79050091	    -50.42592602	    -18.12060157	     -1.43607231	     14.28498113	     25.81386869	      5.42506931	     -1.20329110	    -20.62067503	     -2.58107330	     -2.89116135	      8.41134055	     -8.90636157	     -5.42941351	      5.98620422
     22.89500000	     -2.94321889	     -6.33873372	   -269.75334729	      0.00204867	      0.17077857	     -1.81962059	      7.25823568	     -5.93054527	     -3.71268469	    -51.93654362	    -18.22679218	     -1.98151125	     13.75922126	     25.45434189	      5.50332588	     -1.28340331	    -20.51680618	     -2.32000216	     -2.89823341	      8.36984972	     -8.93684836	     -5.46479146	      5.89246415
     22.90000000	     -3.01323962	     -6.37579202	   -269.91377299	      0.00172702	      0.17161393	     -1.81948441	      8.24797548	     -6.15072190	     -3.65854581	    -53.38966828	    -17.62385050	     -2.45965133	     13.66695994	     25.01442382	      5.53541714	     -1.47164151	    -20.34870251	     -1.99564291	     -2.81356395	      8.39606444	     -8.89766684	     -5.51244769	      5.81327426
     22.90500000	     -3.03764368	     -6.45650359	   -270.02156754	      0.00125625	      0.17243118	     -1.81932429	      9.27487241	     -6.30896624	     -3.63993741	    -54.81878879	    -16.78166444	     -3.04862283	     12.87282417	     24.65419637	      5.54786918	     -1.63638881	    -20.23827411	     -1.54408020	     -2.44808179	      8.43854338	     -8.80797444	     -5.49179933	      5.68841532
     22.91000000	     -3.02206797	     -6.50749542	   -270.16693958	      0.00091115	      0.17332707	     -1.81894023	     10.30557661	     -6.38620508	     -3.56724710	    -56.18759864	    -15.80957966	     -3.64810715	     12.59524075	     24.25236150	      5.50703982	     -1.75126731	    -20.07915770	     -1.39854563	     -2.59038662	      8.46477682	     -8.78504222	     -5.43593949	      5.60712019
     22.91500000	     -3.01143734	     -6.45504615	   -270.24584845	      0.00048394	      0.17433517	     -1.81862419	     11.18655393	     -6.44665613	     -3.54850308	    -57.44307163	    -14.70182186	     -4.60881468	     10.14128086	     23.70239097	      5.49812295	     -1.84319675	    -19.86566921	     -1.08337045	     -2.44462432	      8.54561238	     -8.87745594	     -5.36131748	      5.41393456
     22.92000000	     -2.94268375	     -6.53902337	   -270.31730012	      0.00005956	      0.17519423	     -1.81813875	     12.23114779	     -6.44521275	     -3.54569139	    -58.61536724	    -13.99690103	     -5.33972500	      9.71787565	     23.35423557	      5.43901980	     -1.86319190	    -19.72278684	     -0.69994466	     -2.23211155	      8.50295968	     -8.83425414	     -5.24862415	      5.30241594
     22.92500000	     -2.90189796	     -6.57872711	   -270.39544199	     -0.00039998	      0.17611221	     -1.81767787	     13.22610541	     -6.44370187	     -3.47242786	    -59.68888101	    -13.13408894	     -6.08794224	      9.37559475	     22.94047800	      5.41147622	     -1.92851541	    -19.54186249	     -0.58237253	     -2.39524916	      8.47499491	     -8.85845588	     -5.13987018	      5.15675426
     22.93000000	     -2.80012290	     -6.60352176	   -270.41581874	     -0.00091680	      0.17708735	     -1.81718286	     14.14036580	     -6.43107536	     -3.55425338	    -60.59448572	    -12.51343852	     -6.69691000	      9.21957820	     22.49121777	      5.35719042	     -1.84450590	    -19.31103120	     -0.40236652	     -2.45294719	      8.49181505	     -8.87342566	     -4.97059057	      4.98737766
     22.93500000	     -2.70697163	     -6.64019341	   -270.42717702	     -0.00146313	      0.17806953	     -1.81664707	     15.06507663	     -6.41866251	     -3.61538573	    -61.42767806	    -11.90428512	     -7.24512251	      8.06231238	     22.01517182	      5.31732430	     -1.75646844	    -18.99433842	     -0.21825418	     -2.48903797	      8.37163568	     -8.91242809	     -4.79772566	      4.80160762
     22.94000000	     -2.59920354	     -6.71329116	   -270.43295226	     -0.00197048	      0.17898319	     -1.81611613	     16.03109000	     -6.41323808	     -3.69623583	    -62.19254714	    -11.50674450	     -7.62551900	      8.09022991	     21.65141581	      5.23168739	     -1.75323032	    -18.86473480	      0.08063334	     -2.32531500	      8.35833707	     -8.88090308	     -4.61945768	      4.62235293
     22.94500000	     -2.45291226	     -6.67745868	   -270.39622831	     -0.00251433	      0.18008661	     -1.81567287	     16.81680507	     -6.36689856	     -3.80532788	    -62.80495517	    -11.17910018	     -7.88170117	      8.10270478	     21.10970520	      5.13812820	     -1.67166676	    -18.58877964	      0.26224363	     -2.30518209	      8.36599537	     -8.97508456	     -4.39171757	      4.40495819
     22.95000000	     -2.30313559	     -6.71352134	   -270.33552163	     -0.00313827	      0.18105297	     -1.81514670	     17.67221890	     -6.33805566	     -3.95887257	    -63.36358375	    -10.84859455	     -8.14275390	      8.10596502	     20.64659567	      5.05015187	     -1.55056861	    -18.30745885	      0.43128329	     -2.27425408	      8.36673328	     -9.01162931	     -4.14783621	      4.17460554
